<?xml version="1.0" standalone="no"?>
<!DOCTYPE svg PUBLIC "-//W3C//DTD SVG 20010904//EN"
 "http://www.w3.org/TR/2001/REC-SVG-20010904/DTD/svg10.dtd">
<svg version="1.0" xmlns="http://www.w3.org/2000/svg"
 width="1024.000000pt" height="1024.000000pt" viewBox="0 0 1024.000000 1024.000000"
 preserveAspectRatio="xMidYMid meet">

<g transform="translate(0.000000,1024.000000) scale(0.100000,-0.100000)"
fill="#000000" stroke="none">
<path d="M2304 7420 c-11 -4 -33 -22 -47 -40 -26 -31 -27 -35 -27 -164 0 -131
0 -134 30 -177 l30 -44 0 -492 0 -491 26 -31 c14 -17 42 -35 62 -41 51 -14
1803 -14 1854 0 20 6 48 24 62 41 23 28 26 39 26 116 0 82 -1 86 -35 126 -55
64 -78 136 -70 227 3 41 8 183 11 314 5 236 6 240 30 269 23 27 24 35 24 168
0 106 -4 147 -15 169 -33 63 17 60 -1007 59 -513 0 -942 -4 -954 -9z m1846
-230 l0 -50 -890 0 -890 0 0 50 0 50 890 0 890 0 0 -50z"/>
<path d="M6165 7073 c-137 -7 -289 -24 -320 -37 -60 -26 -81 -85 -51 -145 18
-34 54 -51 109 -51 55 0 391 56 416 69 11 6 44 11 74 11 136 0 216 -72 217
-196 0 -40 -6 -60 -30 -96 -16 -24 -39 -53 -50 -63 -23 -21 -26 -53 -6 -61 21
-8 112 41 163 89 61 56 86 108 86 178 -1 110 -73 214 -183 263 -90 41 -197 51
-425 39z"/>
<path d="M6450 6795 c-81 -35 -229 -84 -344 -114 -97 -25 -102 -27 -119 -63
-25 -51 -15 -93 26 -119 27 -17 42 -19 97 -13 36 3 80 7 99 8 l34 1 36 -107
c22 -69 32 -111 26 -117 -6 -5 -307 -108 -670 -229 -363 -121 -667 -223 -676
-227 -13 -5 -24 22 -64 152 -75 248 -76 252 -57 262 10 5 109 32 222 60 225
57 240 65 240 130 0 46 -28 78 -72 85 -18 3 -112 7 -208 10 -177 5 -289 19
-441 56 -175 42 -248 13 -273 -107 -16 -71 39 -171 121 -224 58 -36 137 -66
188 -71 l39 -4 58 -184 c32 -102 58 -193 58 -202 0 -10 -49 -50 -127 -104 -71
-48 -176 -125 -235 -171 -58 -45 -111 -83 -117 -83 -5 0 -38 21 -73 48 -35 26
-100 67 -145 90 -46 24 -83 47 -83 51 0 5 7 14 15 21 8 7 20 30 27 51 l11 39
232 0 c212 0 233 2 248 18 21 23 22 62 3 88 -14 19 -37 19 -1071 19 -1034 0
-1057 0 -1071 -19 -8 -11 -14 -32 -14 -48 0 -47 30 -58 175 -61 l128 -2 75
-118 75 -119 -86 -79 c-105 -97 -169 -177 -235 -292 -64 -112 -103 -232 -105
-323 l-2 -69 30 3 30 3 -3 -92 c-13 -363 194 -764 498 -968 l87 -58 -221 -7
c-219 -6 -460 -21 -525 -32 -21 -3 -30 -9 -24 -15 28 -28 431 -60 1148 -90
306 -14 2802 -20 3190 -9 733 22 1432 64 1503 91 61 23 -16 34 -400 55 l-118
6 75 48 c315 206 518 633 476 999 -41 349 -228 659 -511 846 -166 109 -384
175 -585 177 -128 1 -269 -18 -262 -36 2 -6 16 -48 32 -94 22 -68 30 -82 44
-76 33 14 283 17 355 4 268 -48 523 -250 646 -512 72 -155 103 -344 81 -496
-50 -339 -284 -615 -611 -720 -249 -80 -543 -49 -764 81 -324 190 -496 565
-431 940 39 224 159 412 357 558 51 38 67 56 63 68 -32 79 -95 252 -95 261 0
15 -9 13 -69 -21 -178 -100 -393 -335 -498 -544 -42 -82 -83 -217 -90 -292 -5
-54 -3 -63 12 -69 17 -7 66 3 106 20 15 6 16 2 8 -36 -11 -60 -11 -221 1 -298
52 -325 262 -626 554 -795 12 -7 -376 -10 -1178 -10 -658 0 -1196 2 -1196 5 0
3 27 22 60 43 83 53 222 187 293 282 56 75 157 262 157 291 0 14 -4 16 -118
39 -94 19 -89 20 -101 -18 -35 -106 -174 -284 -286 -367 -175 -129 -376 -189
-598 -177 -299 16 -564 171 -729 427 -93 145 -138 302 -138 486 0 171 36 304
119 444 40 66 148 190 166 190 13 -1 217 -340 212 -353 -2 -6 -23 19 -47 54
-89 131 -151 210 -163 206 -20 -6 -85 -97 -126 -177 -209 -400 -34 -905 385
-1110 123 -61 216 -82 364 -83 138 -1 206 10 321 54 183 70 341 215 433 396
14 29 26 54 26 57 0 7 -81 23 -272 56 -229 39 -238 41 -238 50 0 13 29 20 84
20 108 0 571 -75 886 -144 157 -35 290 -55 390 -59 65 -2 77 -24 36 -62 -27
-25 -30 -35 -20 -73 12 -45 48 -52 252 -52 186 0 189 0 211 24 33 35 38 94 11
128 -20 27 -26 28 -108 29 -132 2 -141 5 -177 69 -17 30 -51 84 -74 120 -24
36 -56 92 -71 125 -33 74 -49 88 -105 89 -52 1 -91 -30 -101 -79 -8 -44 14
-83 76 -135 28 -24 48 -46 43 -51 -14 -12 -111 9 -143 31 -80 57 -84 186 -8
257 66 62 199 60 261 -5 39 -40 59 -96 52 -145 -7 -51 9 -84 52 -110 43 -25
66 -11 83 47 23 84 -9 206 -74 283 -15 18 -53 44 -84 59 -68 33 -117 35 -412
16 -215 -13 -1050 -17 -1050 -4 0 8 40 44 269 240 84 73 157 132 162 132 11 0
84 -112 119 -180 13 -25 31 -70 41 -100 l17 -55 108 3 c59 1 110 5 113 7 7 7
-47 141 -93 230 -22 44 -64 111 -93 150 -29 38 -53 72 -53 76 0 11 57 57 195
161 154 115 194 143 199 137 2 -2 27 -85 56 -184 28 -99 76 -263 106 -363 30
-101 54 -185 54 -185 0 -1 57 -2 128 -2 114 0 132 -2 172 -24 25 -13 55 -33
68 -44 19 -18 24 -19 36 -6 7 8 115 142 239 299 124 157 288 362 364 456 76
94 183 228 237 298 93 118 116 141 116 115 0 -20 143 -404 202 -544 61 -143
261 -554 320 -657 32 -55 34 -83 3 -58 -22 18 -35 2 -42 -49 -7 -53 10 -94 59
-135 78 -68 173 -67 248 0 113 102 56 281 -102 319 -20 5 -27 3 -30 -11 -4
-21 -20 18 -131 301 -100 254 -146 381 -229 625 -75 223 -268 831 -268 846 0
5 20 20 45 33 63 33 115 93 115 131 0 35 -39 81 -67 79 -10 0 -43 -11 -73 -24z
m-360 -801 c0 -3 -145 -188 -323 -412 -177 -224 -369 -467 -426 -539 -59 -76
-111 -133 -121 -133 -13 0 -37 71 -118 354 -56 195 -102 361 -102 368 0 10
135 59 418 151 229 76 471 155 537 177 125 41 135 44 135 34z m-2170 -289 c0
-8 -5 -27 -12 -42 -7 -15 -12 -29 -13 -30 0 -1 -34 7 -75 17 -260 67 -518 40
-755 -78 -38 -19 -72 -36 -73 -37 -5 -5 87 -173 98 -180 5 -3 50 15 99 40 142
71 221 89 381 89 142 0 205 -11 326 -59 95 -37 239 -127 232 -144 -4 -9 -197
-185 -399 -363 -157 -139 -168 -147 -200 -142 -46 8 -97 -27 -126 -86 -46 -90
-17 -175 76 -222 50 -25 65 -28 164 -28 119 0 128 -6 67 -48 -72 -49 -163 -53
-259 -11 -101 43 -158 140 -149 252 11 138 102 226 236 230 l60 2 138 120 c76
66 176 156 222 199 98 93 102 82 -53 157 -132 63 -233 84 -375 76 -65 -4 -132
-14 -175 -28 -72 -22 -205 -84 -205 -96 0 -3 50 -99 110 -213 61 -113 110
-212 110 -219 0 -31 -30 4 -110 130 -214 335 -418 698 -404 720 3 5 243 9 535
9 456 0 529 -2 529 -15z m2490 -185 c0 -4 -28 -29 -63 -53 -79 -56 -206 -190
-249 -263 -32 -53 -48 -67 -48 -40 0 20 93 159 142 212 23 25 77 72 121 105
71 53 97 64 97 39z m-1830 -880 c39 -24 -23 -29 -456 -36 -465 -7 -475 -6
-460 31 5 13 71 15 453 15 263 0 454 -4 463 -10z"/>
<path d="M5759 5763 c-13 -16 -12 -17 4 -4 9 7 17 15 17 17 0 8 -8 3 -21 -13z"/>
<path d="M6807 5810 c-27 -5 -52 -11 -55 -14 -3 -4 1 -27 10 -54 10 -31 20
-46 29 -43 8 2 82 6 165 9 115 3 176 1 253 -12 98 -17 103 -17 134 1 40 24 46
56 15 77 -59 38 -402 61 -551 36z"/>
<path d="M6349 5733 c-13 -16 -12 -17 4 -4 9 7 17 15 17 17 0 8 -8 3 -21 -13z"/>
<path d="M4638 5369 c-57 -45 -109 -87 -116 -94 -11 -10 -7 -25 27 -84 47 -83
126 -278 137 -335 l7 -38 117 3 c65 2 121 7 124 10 8 8 -175 619 -185 619 -5
0 -54 -37 -111 -81z"/>
<path d="M6961 5408 c-47 -4 -87 -11 -90 -13 -7 -8 31 -123 106 -322 l65 -171
46 -7 c90 -13 183 -79 223 -158 66 -128 3 -298 -132 -357 -65 -27 -171 -25
-234 5 -53 26 -110 87 -131 140 -20 54 -16 154 9 205 l17 35 -131 260 c-72
143 -134 261 -138 263 -15 5 -142 -111 -196 -180 -63 -80 -125 -201 -150 -294
-9 -32 -19 -108 -22 -169 -15 -314 149 -613 418 -764 212 -119 511 -134 751
-37 190 77 360 245 438 433 96 229 76 502 -51 716 -89 150 -214 266 -364 338
-141 68 -281 93 -434 77z"/>
<path d="M4125 4993 c-55 -47 -127 -110 -160 -141 l-60 -54 124 6 c68 3 176 6
239 6 l114 0 -6 28 c-15 65 -121 243 -144 242 -4 0 -52 -39 -107 -87z"/>
<path d="M7798 3393 c7 -3 16 -2 19 1 4 3 -2 6 -13 5 -11 0 -14 -3 -6 -6z"/>
</g>
</svg>
